<svg width="317" height="102" viewBox="0 0 317 102" fill="none" xmlns="http://www.w3.org/2000/svg">
<path d="M0.124939 0.0205078V101.76H316.759V0.0205078H0.124939Z" fill="black"/>
<path d="M271.751 51.7503H315.215V100.066H271.751V51.7503ZM270.18 1.71338V50.0292H226.742V1.71338H270.18ZM180.162 1.71338V50.0292H136.737V1.71338H180.162ZM90.1442 1.71338V50.0292H46.7064V1.71338H90.1442ZM1.67206 100.066V51.7503H45.1352V100.066H1.67206ZM91.7154 100.066V51.7503H135.14V100.066H91.7154ZM181.733 100.066V51.7503H225.159V100.066H181.733Z" fill="white"/>
<path d="M249.258 44.3812C258.115 44.3812 265.3 36.7195 265.3 27.2673C265.3 17.8151 258.115 10.1534 249.258 10.1534C240.4 10.1534 233.216 17.8151 233.216 27.2673C233.216 36.7195 240.4 44.3812 249.258 44.3812ZM203.894 91.5172C212.751 91.5172 219.936 83.8555 219.936 74.4034C219.936 64.9512 212.751 57.2895 203.894 57.2895C195.036 57.2895 187.852 64.9512 187.852 74.4034C187.852 83.8555 195.036 91.5172 203.894 91.5172ZM76.2923 44.1452H87.5572L68.6641 9.41777L49.7582 44.1452H61.0232L62.9366 40.6475H74.3916L76.2923 44.1452ZM173.939 8.7793H143.983V18.6479H152.714V44.4506H165.221V18.6618H173.939V8.7793ZM128.866 56.5677H98.9108V66.4363H107.629V92.239H120.136V66.4363H128.866V56.5677ZM40.5461 56.5677V91.2952L21.0574 78.8588V91.6005H9.62775V56.8869L29.1164 69.3094V56.5677H40.5461ZM312.463 91.6005L300.64 73.5567L310.144 56.5677H297.156L290.757 65.7284V56.5677H278.149V91.6144H290.757V82.3982L298.119 91.6144H312.463V91.6005Z" fill="black"/>
<path d="M203.022 44.3807C211.879 44.3807 219.064 36.719 219.064 27.2668C219.064 17.8146 211.879 10.1529 203.022 10.1529C194.164 10.1529 186.98 17.8146 186.98 27.2668C186.98 36.719 194.164 44.3807 203.022 44.3807ZM30.7026 30.8062C29.5368 33.2491 27.1926 34.9146 24.5062 34.9146C20.6414 34.9146 17.5116 31.4863 17.5116 27.2529C17.5116 23.0196 20.6414 19.5913 24.5062 19.5913C27.2053 19.5913 29.5368 21.2568 30.7026 23.6997L38.9897 19.8966C36.4174 14.1365 30.9053 10.1391 24.5062 10.1391C15.6489 10.1391 8.46417 17.8007 8.46417 27.2529C8.46417 36.7051 15.6489 44.3807 24.5062 44.3807C30.9053 44.3807 36.4174 40.3833 39.0024 34.6093L30.7026 30.8062ZM308.879 8.97314V43.7006L289.39 31.2781V44.0198H277.948V9.2785L297.437 21.701V8.97314H308.879ZM57.1226 57.2057V90.9755H79.8045V83.1195H67.6399V79.941H79.8045V70.1695H67.6399V66.3526H79.8045V57.2057H57.1226ZM168.124 57.2057L163.664 70.225L159.102 61.3558L154.541 70.225L150.08 57.2057H140.197L151.347 90.0178L159.102 81.093L166.857 90.0178L178.008 57.2057H168.124ZM115.069 35.5392H108.797V43.8255H98.913V9.26462H114.423C116.019 9.26462 117.261 9.18134 117.819 9.26462C129.35 11.1245 128.387 25.4624 122.685 29.9318L130.617 43.8255H118.985L115.069 35.5392ZM250.59 83.1056H244.318V91.3919H234.434V56.831H249.944C251.541 56.831 252.782 56.7477 253.34 56.831C264.871 58.6909 263.908 73.0288 258.206 77.4981L266.138 91.3919H254.493L250.59 83.1056ZM242.265 27.2529C242.265 23.0196 245.395 19.5913 249.26 19.5913C253.125 19.5913 256.254 23.0196 256.254 27.2529C256.254 31.4863 253.125 34.9146 249.26 34.9146C245.395 34.9146 242.265 31.4863 242.265 27.2529ZM196.901 74.4029C196.901 70.1695 200.031 66.7412 203.896 66.7412C207.761 66.7412 210.891 70.1695 210.891 74.4029C210.891 78.6363 207.761 82.0646 203.896 82.0646C200.031 82.0646 196.901 78.6363 196.901 74.4029ZM67.4498 32.3607L68.6663 30.1261L69.8827 32.3607H67.4498Z" fill="white"/>
<path d="M196.028 27.2527C196.028 23.0193 199.157 19.591 203.022 19.591C206.887 19.591 210.017 23.0193 210.017 27.2527C210.017 31.486 206.887 34.9144 203.022 34.9144C199.157 34.9144 196.028 31.486 196.028 27.2527ZM108.899 17.2175V26.406H112.573C113.739 26.406 117.034 25.6565 117.034 21.6313C117.034 17.6062 113.549 17.2175 112.573 17.2175H108.899ZM244.42 64.7978V73.9862H248.107C249.273 73.9862 252.568 73.2367 252.568 69.2116C252.568 65.1725 249.083 64.7978 248.107 64.7978H244.42Z" fill="black"/>
<path d="M0.124878 0.0209961V101.76H316.759V0.0209961H0.124878Z" fill="#CCCCCC"/>
<path d="M271.751 51.7508H315.215V100.067H271.751V51.7508ZM270.18 1.71387V50.0297H226.742V1.71387H270.18ZM180.162 1.71387V50.0297H136.737V1.71387H180.162ZM90.1442 1.71387V50.0297H46.7064V1.71387H90.1442ZM1.67206 100.067V51.7508H45.1352V100.067H1.67206ZM91.7154 100.067V51.7508H135.14V100.067H91.7154ZM181.733 100.067V51.7508H225.159V100.067H181.733Z" fill="white"/>
<path d="M249.258 44.3812C258.115 44.3812 265.3 36.7195 265.3 27.2673C265.3 17.8151 258.115 10.1534 249.258 10.1534C240.4 10.1534 233.216 17.8151 233.216 27.2673C233.216 36.7195 240.4 44.3812 249.258 44.3812ZM203.894 91.5172C212.751 91.5172 219.936 83.8555 219.936 74.4034C219.936 64.9512 212.751 57.2895 203.894 57.2895C195.036 57.2895 187.852 64.9512 187.852 74.4034C187.852 83.8555 195.036 91.5172 203.894 91.5172ZM76.2923 44.1452H87.5572L68.6641 9.41777L49.7582 44.1452H61.0232L62.9366 40.6475H74.3916L76.2923 44.1452ZM173.939 8.7793H143.983V18.6479H152.714V44.4506H165.221V18.6618H173.939V8.7793ZM128.866 56.5677H98.9108V66.4363H107.629V92.239H120.136V66.4363H128.866V56.5677ZM40.5461 56.5677V91.2952L21.0574 78.8588V91.6005H9.62775V56.8869L29.1164 69.3094V56.5677H40.5461ZM312.463 91.6005L300.64 73.5567L310.144 56.5677H297.156L290.757 65.7284V56.5677H278.149V91.6144H290.757V82.3982L298.119 91.6144H312.463V91.6005Z" fill="#CCCCCC"/>
<path d="M203.022 44.3807C211.879 44.3807 219.064 36.719 219.064 27.2668C219.064 17.8146 211.879 10.1529 203.022 10.1529C194.164 10.1529 186.98 17.8146 186.98 27.2668C186.98 36.719 194.164 44.3807 203.022 44.3807ZM30.7026 30.8062C29.5368 33.2491 27.1926 34.9146 24.5062 34.9146C20.6414 34.9146 17.5116 31.4863 17.5116 27.2529C17.5116 23.0196 20.6414 19.5913 24.5062 19.5913C27.2053 19.5913 29.5368 21.2568 30.7026 23.6997L38.9897 19.8966C36.4174 14.1365 30.9053 10.1391 24.5062 10.1391C15.6489 10.1391 8.46417 17.8007 8.46417 27.2529C8.46417 36.7051 15.6489 44.3807 24.5062 44.3807C30.9053 44.3807 36.4174 40.3833 39.0024 34.6093L30.7026 30.8062ZM308.879 8.97314V43.7006L289.39 31.2781V44.0198H277.948V9.2785L297.437 21.701V8.97314H308.879ZM57.1226 57.2057V90.9755H79.8045V83.1195H67.6399V79.941H79.8045V70.1695H67.6399V66.3526H79.8045V57.2057H57.1226ZM168.124 57.2057L163.664 70.225L159.102 61.3558L154.541 70.225L150.08 57.2057H140.197L151.347 90.0178L159.102 81.093L166.857 90.0178L178.008 57.2057H168.124ZM115.069 35.5392H108.797V43.8255H98.913V9.26462H114.423C116.019 9.26462 117.261 9.18134 117.819 9.26462C129.35 11.1245 128.387 25.4624 122.685 29.9318L130.617 43.8255H118.985L115.069 35.5392ZM250.59 83.1056H244.318V91.3919H234.434V56.831H249.944C251.541 56.831 252.782 56.7477 253.34 56.831C264.871 58.6909 263.908 73.0288 258.206 77.4981L266.138 91.3919H254.493L250.59 83.1056ZM242.265 27.2529C242.265 23.0196 245.395 19.5913 249.26 19.5913C253.125 19.5913 256.254 23.0196 256.254 27.2529C256.254 31.4863 253.125 34.9146 249.26 34.9146C245.395 34.9146 242.265 31.4863 242.265 27.2529ZM196.901 74.4029C196.901 70.1695 200.031 66.7412 203.896 66.7412C207.761 66.7412 210.891 70.1695 210.891 74.4029C210.891 78.6363 207.761 82.0646 203.896 82.0646C200.031 82.0646 196.901 78.6363 196.901 74.4029ZM67.4498 32.3607L68.6663 30.1261L69.8827 32.3607H67.4498Z" fill="white"/>
<path d="M196.028 27.2527C196.028 23.0193 199.158 19.591 203.023 19.591C206.887 19.591 210.017 23.0193 210.017 27.2527C210.017 31.486 206.887 34.9144 203.023 34.9144C199.158 34.9144 196.028 31.486 196.028 27.2527ZM108.899 17.2175V26.406H112.574C113.739 26.406 117.034 25.6565 117.034 21.6313C117.034 17.6062 113.549 17.2175 112.574 17.2175H108.899ZM244.42 64.7978V73.9862H248.108C249.273 73.9862 252.568 73.2367 252.568 69.2116C252.568 65.1725 249.083 64.7978 248.108 64.7978H244.42Z" fill="#CCCCCC"/>
</svg>
