<svg width="323" height="117" viewBox="0 0 323 117" fill="none" xmlns="http://www.w3.org/2000/svg">
<path d="M309.259 65.0627H309.507L309.756 65.0731C309.926 65.0835 310.07 65.094 310.149 65.1356C310.292 65.1773 310.41 65.2711 310.476 65.3856C310.515 65.469 310.541 65.6044 310.541 65.8127C310.554 66.0211 310.58 66.1878 310.62 66.2919H311.732L311.692 66.1982C311.679 66.1669 311.666 66.1357 311.666 66.094C311.666 66.0627 311.653 66.0315 311.653 65.9898V65.6773C311.653 65.3127 311.535 65.0627 311.261 64.9065C311.117 64.8127 310.907 64.7502 310.633 64.6981C310.907 64.6773 311.182 64.6044 311.405 64.4689C311.614 64.3439 311.719 64.1252 311.719 63.8335C311.719 63.4481 311.522 63.1772 311.117 63.0001C310.894 62.9064 310.606 62.8335 310.24 62.8231C310.188 62.8231 309.874 62.823 309.337 62.8126H308.095V66.2919H309.259V65.0627ZM310.345 64.3127C310.201 64.396 309.978 64.4481 309.704 64.4481H309.259V63.4377H309.534C309.821 63.4377 310.044 63.4585 310.214 63.5106C310.449 63.5939 310.567 63.7189 310.567 63.9064C310.567 64.0939 310.502 64.2294 310.345 64.3127ZM153.451 79.4591C156.081 79.4591 156.709 81.5633 156.591 82.73C156.068 87.5844 147.826 91.5324 145.732 91.7303C146.844 81.6987 150.534 79.5737 153.451 79.4591ZM71.2761 80.532C69.6146 82.5529 67.5082 84.7822 64.9308 87.251C65.0747 86.2301 65.2056 85.2718 65.3495 84.3447C67.4166 71.115 70.4781 66.6774 74.4553 67.2399C75.7506 67.4586 76.287 68.5733 76.3132 69.4795C76.6141 72.3546 75.0833 75.8964 71.2761 80.532ZM296.634 92.8554C294.606 90.4074 292.774 87.8448 291.165 85.1989C288.496 88.2198 285.526 91.2512 282.478 94.1367C286.743 94.0533 291.623 93.7096 296.634 92.8554ZM292.512 73.1568C294.174 70.6358 295.221 68.4482 295.365 66.8128C295.508 65.844 295.312 64.1668 293.585 64.1668C290.615 64.1773 290.615 68.0003 292.512 73.1568ZM240.141 89.1261C247.389 82.3967 251.091 72.313 250.228 68.167C250.044 67.3024 249.626 66.6357 248.553 66.7399C245.191 67.0836 237.301 79.282 240.141 89.1261ZM198.379 97.8972C195.527 97.168 193.159 95.8763 191.772 94.4909C191.667 94.5638 191.576 94.6159 191.471 94.6784C191.458 94.7825 191.432 94.8971 191.393 95.0013C191.314 103.46 194.938 111.273 198.942 110.898C203.154 110.294 201.166 103.043 198.379 97.8972ZM192.034 87.5739C200.263 81.0529 206.674 71.7609 206.635 66.7815C206.635 65.8232 206.373 64.9794 205.235 64.9794C202.657 64.9794 194.258 71.8442 192.034 87.5739ZM168.013 94.0325C164.703 94.2721 163.983 100.283 157.376 100.574C152.876 100.772 150.809 96.2826 150.809 96.2826C150.809 96.2826 163.552 91.5845 163.46 81.4487C163.251 78.5424 161.445 73.8964 154.694 73.8964C151.777 73.8964 148.558 75.3964 146.648 77.0527C147.302 74.313 147.917 70.7921 148.205 66.0003C148.388 62.8856 145.667 62.5835 144.607 62.6355C143.822 62.6668 141.533 63.146 141.219 65.969C140.172 75.3652 140.015 76.7611 139.073 82.7404C137.346 93.72 127.769 97.5326 121.529 97.241C118.873 97.116 114.725 95.9701 114.725 90.1678C114.725 83.9384 119.618 79.3341 122.222 79.6153C124.054 79.8132 124.996 81.355 123.373 83.5634C122.065 85.3968 120.678 87.949 124.067 88.9907C128.096 90.1053 131.066 85.3864 131.171 81.0112C131.171 77.6048 128.528 73.6255 122.052 73.3755C115.236 73.1047 107.085 80.6154 107.085 90.7095C107.085 91.5533 107.163 92.3345 107.294 93.0846C106.797 95.3659 104.39 97.7097 101.995 97.7097C99.3919 97.7097 97.1808 94.5846 97.4555 90.6053C97.7434 86.501 99.3003 83.7613 99.9544 82.1258C101.302 78.7299 99.7058 78.0424 97.8088 77.7507C96.3173 77.5215 93.9493 77.834 92.6933 81.2195C91.555 84.2822 90.0897 88.4698 88.8076 91.5533C88.0095 93.47 86.989 95.6576 85.6545 97.1472C84.4771 98.2202 83.1949 98.9181 82.0043 98.9181C77.7915 98.9494 81.3633 92.0533 81.3633 87.3135C81.324 85.9801 80.0549 83.5321 75.8683 84.2092C80.5128 78.6049 82.8678 73.8234 82.7239 68.9274C82.4492 63.5522 77.7131 61.9897 74.1413 62.0522C64.5776 62.2189 59.5667 71.0525 57.7481 91.6991C49.1263 98.5431 38.6206 102.679 28.5989 102.002C14.4036 101.022 7.10322 89.3448 8.0452 75.3339C9.37969 55.6874 27.8139 31.9782 45.3976 33.4262C51.5598 33.9366 55.8118 38.5201 55.1577 48.4267C54.3858 59.9271 44.5472 76.6881 34.1461 76.1985C29.3446 75.9694 27.84 71.8338 28.2064 68.1774C29.0044 60.2605 33.7798 58.0833 34.0938 54.8748C34.2769 52.9894 31.9743 52.1664 30.2997 52.6143C27.4083 53.3956 21.6386 59.4271 20.9452 68.0107C20.0817 78.5007 28.2979 81.7717 33.1649 82.0008C47.5694 82.6779 61.6338 65.7294 62.8113 47.9267C63.5702 36.4054 57.6042 28.9677 46.3135 27.9364C24.3599 25.9571 1.30737 50.1768 0.12989 75.5423C-0.576601 90.7095 8.1237 106.585 28.4288 107.793C38.1234 108.314 48.2759 105.106 57.1463 99.3348C57.1332 100.626 57.1463 101.772 57.1463 102.637C57.2248 104.762 58.1276 106.595 60.9143 106.523C63.5702 106.45 64.2636 104.835 64.1981 102.897C64.1589 101.772 64.172 100.689 64.2112 99.6265C64.7869 90.3865 70.2687 89.0532 72.4929 89.3865C75.5543 89.9282 73.1078 92.2616 73.4218 98.8973C73.6311 103.647 78.2495 104.918 80.382 104.918C85.3929 104.918 89.7496 101.866 92.3008 97.3347L92.3924 97.2826C94.6034 101.939 98.3714 103.606 101.367 103.606C104.887 103.606 108.223 101.439 110.303 99.0431C113.155 102.033 117.342 103.356 120.469 103.481C126.814 103.72 132.191 101.293 136.247 98.0222C135.776 100.595 135.214 104.043 135.214 104.606C135.214 106.127 136.064 107.21 137.856 107.377C140.8 107.648 142.959 105.991 143.875 97.8452C143.875 97.8452 148.048 105.887 157.298 105.887C166.574 105.887 170.59 98.4181 170.59 96.1367C170.551 95.4701 170.263 93.8658 168.013 94.0325ZM78.8644 51.031C78.8644 48.6455 71.1061 44.1245 65.6242 43.7078C65.6896 44.9995 65.6765 46.3225 65.585 47.6975C65.3756 50.9476 64.7869 54.2394 63.8711 57.4583C73.9451 51.5726 78.8644 53.1873 78.8644 51.031ZM317.109 105.908C311.653 105.668 305.988 102.304 300.951 97.5014C292.055 99.2098 282.936 99.5431 276.577 99.5015C271.305 104.064 266.255 107.866 262.644 110.033C262.644 110.033 257.777 113.127 255.422 110.502C254.048 108.741 254.741 106.845 258.535 104.825C260.904 103.564 263.873 101.522 267.092 99.0014C261.649 97.7514 262.997 92.9908 268.309 93.5429C268.701 93.5846 270.454 93.7929 273.176 93.9596C278.448 89.3344 283.812 84.0217 287.946 79.1466C285.997 74.8756 284.859 70.8129 284.859 67.6253C284.859 63.4481 287.698 58.7083 293.468 58.7083C299.054 58.7083 301.919 62.6251 301.919 66.6774C301.919 70.1254 299.42 74.7818 295.613 79.8132C297.798 83.7405 300.624 87.8031 303.803 91.2928C307.231 90.3553 310.606 89.1157 313.773 87.5323C318.051 85.376 321.714 89.5219 317.24 92.1783C314.544 93.6054 311.562 94.7617 308.435 95.6992C311.719 98.3764 315.199 100.168 318.522 100.418C324.226 100.814 324.462 106.408 317.109 105.908ZM261.388 93.4596C260.72 95.668 257.279 102.043 248.488 102.21H248.291C244.222 102.262 240.232 100.606 237.288 97.5535C233.154 99.7515 229.177 100.814 226.325 100.449C220.123 99.6577 218.279 95.5326 217.742 92.845C214.197 96.3868 209.474 98.0639 204.934 98.4181C206.556 101.085 207.367 104.293 207.367 107.241C207.367 111.846 204.201 116.544 198.471 116.544C190.464 116.544 185.662 107.054 185.034 97.8139C183.661 98.241 181.397 98.5848 180.35 96.7305C179.081 94.5117 182.221 92.4595 184.877 91.1991C185.335 72.7922 194.899 59.7604 205.235 59.7604C208.715 59.7604 212.888 61.5418 212.888 66.8961C212.888 72.5005 208.937 79.6778 202.579 86.0947C201.715 86.9697 199.7 88.6677 197.463 90.4074C206.491 95.793 211.972 89.9907 214.236 86.4177C214.733 85.5218 215.178 84.6155 215.57 83.6884C216.853 80.6154 216.486 81.3341 217.69 78.2819C219.417 73.938 222.204 74.1255 223.46 74.3026C227.96 74.9381 225.265 79.1361 224.166 82.8342L224.114 82.9279C222.426 89.2198 223.211 94.22 227.869 94.9909C229.36 95.1784 231.924 94.4388 234.554 92.8658C228.405 79.4382 237.799 63.5522 247.506 62.0209C250.751 61.5105 255.016 62.5105 256.089 67.3545C257.201 72.4276 254.964 79.5007 250.306 86.2406C249.26 87.7719 246.224 91.2095 242.626 93.8138C242.652 93.8346 242.666 93.8658 242.666 93.8658C245.387 96.8764 248.828 96.8034 248.828 96.8034C253.93 96.7826 255.474 93.4804 256.102 92.1158C256.822 90.5532 258.3 90.0324 259.87 90.4491C261.584 90.9178 261.715 92.397 261.388 93.4596ZM225.186 65.5002C223.015 65.5002 221.262 66.969 221.262 68.8024C221.262 70.6254 223.015 72.1046 225.186 72.1046C227.345 72.1046 229.098 70.6254 229.098 68.8024C229.098 66.9794 227.345 65.5002 225.186 65.5002ZM269.29 86.2406C274.288 86.2406 276.224 84.5947 276.224 82.9071C276.224 80.7299 273.136 79.6882 269.29 79.7195C265.365 79.7507 262.565 80.98 262.565 82.9384C262.578 84.5218 264.305 86.2406 269.29 86.2406ZM174.175 86.251C179.186 86.251 181.135 84.5947 181.135 82.8967C181.135 80.7091 178.035 79.6674 174.175 79.6987C170.237 79.7299 167.437 80.9695 167.437 82.9279C167.437 84.5322 169.164 86.251 174.175 86.251ZM99.7974 68.8024C97.521 68.8024 95.6762 70.3546 95.6762 72.2817C95.6762 74.1985 97.521 75.7506 99.7974 75.7506C102.074 75.7506 103.919 74.1985 103.919 72.2817C103.919 70.3546 102.074 68.8024 99.7974 68.8024ZM13.6186 20.4465C11.7477 22.3008 12.3234 25.3217 15.725 27.7697C19.1266 30.2177 23.8366 31.0198 25.7206 29.1656C27.6045 27.3114 25.9299 23.4987 22.5283 21.0611C19.1266 18.5923 15.5026 18.5923 13.6186 20.4465ZM27.0681 7.17521C23.4179 8.59193 22.1227 12.79 24.8047 17.7381C27.4868 22.6862 32.9686 26.1863 36.6188 24.78C40.269 23.3633 40.7139 17.5714 38.0187 12.6233C35.3367 7.68564 30.7183 5.76891 27.0681 7.17521ZM54.8699 1.03957C50.016 0.143703 45.0575 3.47716 43.3698 10.0086C41.682 16.5401 44.037 23.4154 48.8778 24.3008C53.7185 25.1863 59.2527 19.7694 60.9274 13.2275C62.6151 6.69602 59.7106 1.92502 54.8699 1.03957ZM89.8935 11.665C86.1909 7.46688 78.171 7.20646 70.0725 12.29C61.9871 17.3631 57.3687 25.5405 61.0713 29.7489C64.7738 33.947 75.3973 32.5928 83.4958 27.5093C91.5943 22.4258 93.596 15.8734 89.8935 11.665ZM50.8402 44.2182C50.7487 47.635 45.8163 51.7914 43.4613 48.583C42.1792 46.1245 45.4107 41.666 48.3937 41.5827C50.801 41.5827 50.8664 43.4057 50.8402 44.2182Z" fill="#C6CDC7"/>
</svg>
