<svg width="324" height="66" viewBox="0 0 324 66" fill="none" xmlns="http://www.w3.org/2000/svg">
<path d="M168.653 17.3812H158.975L153.521 23.068H163.199L168.653 17.3812ZM193.759 32.3454C188.692 32.6117 179.736 35.5324 174.856 41.8978C169.977 48.2632 169.963 52.1976 169.963 52.1976C169.963 52.1976 172.53 50.385 176.487 48.4866C180.431 46.5881 183.372 45.9181 183.372 45.9181C183.372 45.9181 184.107 43.5815 185.925 41.1333C187.703 38.7538 190.51 36.2798 193.986 35.7128C201.031 34.5703 197.662 42.8427 192.475 48.2374C189.681 51.1324 179.802 59.4649 171.3 59.4649C162.798 59.4649 161.154 54.1991 162.958 49.2769C164.75 44.3546 167.223 38.1009 179.629 26.736C192.034 15.3711 205.456 8.6363 213.223 5.80152C221.204 2.89801 224.452 4.16937 224.452 4.16937C224.452 4.16937 214.265 8.1982 208.464 13.0517C202.916 17.6904 199.614 22.9047 202.181 25.4646C204.627 27.9043 213.263 27.9472 222.768 19.125C232.165 10.4145 229.799 5.23456 229.799 5.23456C229.799 5.23456 230.936 4.99403 231.698 4.9339C236.269 4.53875 239.932 5.32046 245.614 7.18455C251.563 9.14313 257.257 12.2872 265.078 14.8557C267.431 13.1977 270.051 11.4367 272.805 9.71868C262.271 6.42001 254.276 1.72973 243.943 1.27445C234.946 0.879293 227.861 2.9925 227.861 2.9925C227.861 2.9925 225.12 0.595814 216.658 1.37753C208.196 2.15924 182.115 9.1689 159.937 31.9932C139.885 52.6357 149.336 64.4644 163.747 64.327C179.375 64.181 194.24 53.0136 199.28 43.7963C204.279 34.5961 198.331 32.1049 193.759 32.3454ZM224.439 13.1634C221.818 17.2781 217.942 20.1559 214.145 22.3464C209.266 25.164 206.592 25.0695 205.429 24.5025C202.395 23.0164 206.458 17.4327 213.517 12.4332C220.535 7.45944 226.591 5.9046 226.591 5.9046C226.578 5.97332 227.58 8.23256 224.439 13.1634ZM311.479 7.16737C304.327 10.1224 294.408 12.8026 284.889 12.2099C282.483 13.8162 279.903 15.6631 277.31 17.6904C293.833 19.7865 308.27 13.2063 315.97 7.60547C320.77 4.10923 323.136 0.990967 323.136 0.990967C323.136 0.990967 318.551 4.23809 311.479 7.16737Z" fill="#ABADB0"/>
<path d="M303.663 33.11H293.49L291.832 34.7508C291.832 34.7508 289.76 32.3455 286.244 32.3799C280.215 32.4486 274.186 35.4036 267.181 40.532C262.048 44.286 253.532 52.6529 253.532 52.6529C253.532 52.6529 246.995 59.1214 243.693 58.6145C238.065 57.7469 248.425 44.3547 248.425 44.3547C248.425 44.3547 253.866 42.1899 260.925 38.3759C265.363 35.9706 270.483 32.6719 275.175 29.6052C279.453 26.822 284.479 23.0336 289.279 18.8931C288.049 19.022 286.792 19.0993 285.509 19.1423C281.218 22.7845 276.632 26.0402 272.729 28.6259C266.927 32.4744 261.593 35.627 257.716 37.6371C254 39.5613 251.62 40.4289 251.62 40.4289C251.62 40.4289 258.706 31.0741 270.523 20.7315C282.34 10.3974 298.89 0.79345 297.594 5.34629C297.219 6.65201 295.963 8.53328 294.051 10.7582C295.401 10.5778 296.698 10.3544 297.954 10.0967C300.802 6.31699 301.778 3.20731 299.652 2.30534C290.976 -1.36271 268.932 13.8163 257.877 22.6385C246.821 31.4607 236.822 44.9302 236.822 44.9302C236.822 44.9302 235.097 45.3941 233.186 45.626C231.983 45.7721 231.461 45.7377 231.261 45.6948C231.167 45.669 231.154 45.626 231.154 45.626C231.154 45.626 240.872 33.9433 230.927 32.397C221.315 30.9023 204.671 42.3274 198.749 50.2734C194.685 55.7282 192.399 62.5832 199.364 64.224C206.891 65.9936 219.711 57.1456 222.718 54.5685C225.726 52 229.496 47.7221 229.496 47.7221C229.496 47.7221 231.341 47.6619 232.344 47.5674C234.269 47.3871 235.164 47.2324 235.164 47.2324C235.164 47.2324 233.921 49.3284 232.571 51.9914C230.058 56.9566 227.785 64.0522 236.835 64.3872C242.597 64.6019 251.072 57.9015 251.072 57.9015C251.072 57.9015 248.8 63.8546 256.286 64.3872C261.807 64.7823 269.855 59.2932 269.855 59.2932C269.855 59.2932 268.103 64.0178 273.705 64.4387C278.504 64.7995 285.308 61.183 290.896 57.2057C296.992 52.8676 301.671 48.1086 301.671 48.1086H298.115C298.115 48.1086 290.268 55.7626 284.76 57.807C280.242 59.4907 281.792 56.7934 283.156 55.3846C284.68 53.8212 303.663 33.11 303.663 33.11ZM226.114 47.5159C225.98 47.7221 223.427 50.5654 220.7 52.8075C217.759 55.2214 212.385 58.8551 209.163 58.0819C204.11 56.8793 209.671 49.8095 213.307 46.382C216.943 42.9545 217.358 42.7225 217.451 42.628C217.558 42.5421 217.652 42.4562 217.746 42.5593C217.839 42.6624 218.989 44.0712 221.275 45.2996C223.574 46.528 225.78 47.1723 225.954 47.2152C226.127 47.2668 226.261 47.3183 226.114 47.5159ZM228.387 44.9732C228.066 45.3168 227.838 45.334 227.183 45.2137C226.02 45.0075 221.181 43.573 221.221 40.3946C221.261 37.2935 228.066 34.2525 230.726 35.5497C233.212 36.7609 232.023 39.862 231.087 41.434C230.151 43.0146 228.6 44.7498 228.387 44.9732ZM274.627 52.6443C273.277 53.8298 272.154 54.8949 271.151 55.6509C268.986 57.2573 267.569 58.0046 266.312 58.2022C265.684 58.3053 264.895 58.2795 264.374 58.0733C262.529 57.3518 263.826 54.5342 267.034 50.7458C269.975 47.284 273.384 43.8221 278.985 39.8362C284.6 35.8331 286.752 35.6442 288.329 35.6871C289.653 35.7215 289.84 36.6149 289.84 36.6149C289.84 36.6149 289.746 36.821 289.533 37.053C287.661 39.1318 278.317 49.3886 274.627 52.6443ZM124.503 57.6524C118.326 55.2042 110.413 53.6322 101.322 53.5806C77.8878 53.4518 52.3813 60.7621 35.0963 60.8652C14.7098 60.9769 13.6939 50.9005 15.2045 45.3683C18.4529 33.445 31.6206 22.0801 40.0693 16.0841C48.5313 10.0881 57.3944 5.43219 64.7736 4.24674C72.1395 3.06128 71.4577 6.6606 70.5487 7.15025C69.6129 7.15884 67.8349 7.28769 66.8189 7.74298C65.2281 8.44738 63.116 9.73592 62.9823 11.7804C62.755 14.9244 69.0782 15.4828 73.6634 8.88548C76.7782 4.39277 71.832 1.34323 67.728 1.05116C62.0866 0.647415 53.4775 1.91018 43.1974 6.15378C25.2707 13.5328 1.34168 29.9488 0.726749 48.1516C0.379176 58.5372 10.94 64.3872 25.4311 64.3872C39.9222 64.3872 59.5868 58.6833 78.7968 58.5372C90.6945 58.4685 98.3812 61.1487 102.285 65.5125C102.285 65.5125 106.161 61.372 114.784 61.1487C123.313 60.9253 132.711 62.463 140.424 65.9506C137.857 63.5625 130.572 60.0663 124.503 57.6524Z" fill="#ABADB0"/>
<path d="M71.1361 16.7443C61.3105 15.1293 45.0013 25.8757 38.1167 34.6206C33.879 40.0153 32.0209 46.793 39.5605 48.5626C47.1001 50.3322 59.9202 41.4842 62.928 38.9158C65.9359 36.3473 70.8687 31.1931 70.8687 31.1931C70.8687 31.1931 72.3793 31.0041 73.3686 30.8581C74.3578 30.712 75.962 30.42 75.962 30.42C75.962 30.42 74.1038 32.5504 72.4328 34.7237C70.4543 37.3008 65.0536 45.9082 75.4808 48.4853C85.44 50.9507 99.6237 40.6682 100.359 40.4792C100.359 40.4792 96.1346 47.4888 102.698 48.5626C109.89 49.7395 117.778 43.8208 117.778 43.8208C117.778 43.8208 116.12 48.2706 121.721 48.6829C131.761 49.4302 149.514 32.9283 149.514 32.9283H145.971C145.971 32.9283 136.934 40.4019 132.59 41.9395C128.245 43.4858 129.809 40.7369 130.985 39.5171C132.496 37.9536 151.679 17.3456 151.679 17.3456H141.506L140.33 18.5482C140.33 18.5482 138.231 16.4952 134.728 16.6412C124.529 17.0707 112.39 27.5165 107.056 32.1209C101.722 36.7252 90.2125 45.5217 84.1433 43.9496C77.5395 42.2402 84.1032 34.3973 88.4479 29.7929C93.1802 24.7762 101.562 19.811 104.877 19.7766C108.955 19.7251 107.35 22.1046 107.35 22.1046C107.35 22.1046 104.303 21.8641 102.097 23.6509C100.533 24.9136 99.236 26.7605 100.72 27.7656C103.126 29.3891 106.254 27.7398 108.112 25.9015C113.928 20.1718 109.677 17.1566 105.105 16.7185C95.3592 15.7822 86.3892 23.8227 79.5714 26.8121C74.8391 28.8823 72.8606 28.7191 72.8606 28.7191C72.8606 28.7191 81.0553 18.3678 71.1361 16.7443ZM115.238 35.2563C118.179 31.7944 122.202 28.4528 127.416 24.2694C132.63 20.0859 135.236 19.7423 136.814 19.7852C138.137 19.8196 138.324 20.713 138.324 20.713C138.324 20.713 126.975 33.418 122.858 37.0517C121.507 38.2371 120.358 39.2422 119.355 39.9895C117.189 41.5959 115.612 42.3776 114.395 42.5666C113.767 42.6697 112.978 42.6439 112.457 42.4378C110.599 41.7162 112.016 39.0446 115.238 35.2563ZM67.0722 31.133C66.9251 31.3391 63.69 34.7838 60.9629 37.0173C58.0219 39.4312 52.6078 43.0734 49.3727 42.3089C44.3196 41.1063 49.7069 34.088 53.3431 30.6605C56.9792 27.233 57.5139 26.7863 57.6075 26.7004C57.7145 26.6059 57.808 26.5286 57.9016 26.6317C57.9952 26.7348 59.1449 28.2638 61.6447 29.2947C64.1446 30.3255 66.7112 30.798 66.8984 30.8409C67.0989 30.8839 67.2192 30.9354 67.0722 31.133ZM71.3099 25.7726C70.3741 27.3533 69.5319 28.3497 69.3581 28.5817C69.0774 28.9596 68.3823 28.8394 68.3823 28.8394C67.5935 28.8136 61.4041 27.9116 61.4442 24.7246C61.4843 21.6236 68.2887 18.5826 70.9489 19.8797C73.4354 21.0995 72.2457 24.2006 71.3099 25.7726ZM296.002 60.6062C295.414 60.3914 294.745 60.2797 294.023 60.2797C293.302 60.2797 292.633 60.3914 292.045 60.6062C291.457 60.8209 290.989 61.113 290.641 61.491C290.307 61.8603 290.133 62.2727 290.133 62.7022C290.133 63.1403 290.307 63.5526 290.641 63.922C290.976 64.2914 291.443 64.5835 292.045 64.7982C292.633 65.013 293.302 65.1247 294.023 65.1247C294.745 65.1247 295.414 65.013 296.002 64.7982C296.59 64.5835 297.058 64.2914 297.406 63.922C297.74 63.5526 297.914 63.1489 297.914 62.7022C297.914 62.2555 297.74 61.8603 297.406 61.491C297.071 61.1216 296.604 60.8295 296.002 60.6062ZM296.697 63.7073C296.443 63.9993 296.082 64.2313 295.614 64.4031C295.146 64.5749 294.612 64.6522 294.023 64.6522C293.435 64.6522 292.887 64.5663 292.433 64.4031C291.965 64.2313 291.604 63.9993 291.35 63.7073C291.096 63.4152 290.962 63.0802 290.962 62.7022C290.962 62.3242 291.096 62.0064 291.35 61.7057C291.604 61.4051 291.978 61.1817 292.446 61.0099C292.914 60.8381 293.449 60.7608 294.037 60.7608C294.625 60.7608 295.16 60.8467 295.628 61.0099C296.096 61.1817 296.457 61.4137 296.724 61.7057C296.978 61.9978 297.112 62.3328 297.112 62.7022C297.112 63.0716 296.964 63.4152 296.697 63.7073Z" fill="#ABADB0"/>
<path d="M295.481 62.6697C295.588 62.5581 295.641 62.4292 295.641 62.2832C295.641 62.0856 295.547 61.9224 295.347 61.7935C295.146 61.6561 294.879 61.5959 294.558 61.5959H292.58V63.7865H293.449V62.9876H294.117L294.919 63.7865H295.908L295.013 62.936C295.213 62.8759 295.374 62.79 295.481 62.6697ZM294.652 62.4378C294.585 62.4722 294.505 62.4979 294.384 62.4979H293.449V62.0684H294.384C294.491 62.0684 294.585 62.0856 294.652 62.1285C294.719 62.1629 294.745 62.223 294.745 62.2832C294.759 62.3519 294.719 62.4034 294.652 62.4378Z" fill="#ABADB0"/>
</svg>
