<svg width="315" height="56" viewBox="0 0 315 56" fill="none" xmlns="http://www.w3.org/2000/svg">
<path d="M297.825 26.8574L314.632 55.4538C309.679 55.0014 304.726 54.4278 299.685 53.9189L290.219 38.1182L280.489 52.6184C275.712 52.1014 271.023 51.9317 266.246 51.5359L283.318 26.5182L267.83 0.878418H282.161L290.835 15.2008L300.125 0.878418H314.632L297.825 26.8574ZM256.503 0.878418H243.492V50.4534C247.741 50.6231 252.166 50.7362 256.503 51.0754V0.878418ZM232.266 49.888C220.412 49.3791 208.557 48.9267 196.439 48.749V0.878418H209.714V40.679C217.319 40.7921 224.938 41.1879 232.279 41.4141V49.888H232.266ZM182.271 20.2657V28.7962H164.131V48.1835H151.045V0.878418H188.205V9.40884H164.144V20.2738L182.271 20.2657ZM128.744 9.40077V48.6359C124.319 48.6359 119.806 48.6359 115.469 48.749V9.40077H101.754V0.878418H142.534V9.40884L128.744 9.40077ZM87.4227 29.2485C81.5897 29.2485 74.6756 29.2485 69.7226 29.4182V42.0927C77.5041 41.7534 85.2981 41.3575 93.1676 41.1798V49.371L56.4476 51.2451V0.878418H93.1551V9.40884H69.7226V20.8958C74.8516 20.8958 82.7336 20.7262 87.4227 20.7262V29.2485ZM13.8945 24.4663V54.2582C9.1175 54.5975 4.86848 55.0014 0.355469 55.4538V0.878418H13.0145L30.262 31.8658V0.878418H43.5371V51.9317C38.8481 52.4487 34.0711 52.6184 29.0301 53.0707L13.8945 24.4663Z" fill="#ABADB0"/>
</svg>
