<svg width="319" height="84" viewBox="0 0 319 84" fill="none" xmlns="http://www.w3.org/2000/svg">
<path d="M195.255 83.4005H220.529V0.818604H195.255V83.4005ZM150.861 59.8522C150.861 62.755 147.767 65.1967 144.087 65.1967H129.37C125.69 65.1967 122.595 62.755 122.595 59.8522V26.5644H97.3212V61.4799C97.3212 75.75 108.944 83.292 126 83.292H150.689C166.404 83.292 175.964 74.3664 175.964 61.4799V26.5644H150.689C150.861 26.5644 150.861 58.8212 150.861 59.8522ZM293.016 26.5644V59.8522C293.016 62.755 289.922 65.1967 286.242 65.1967H271.559C267.88 65.1967 264.785 62.755 264.785 59.8522V26.5644H239.511V61.4799C239.511 75.75 251.133 83.292 268.189 83.292H292.879C308.594 83.292 318.153 74.3664 318.153 61.4799V26.5644H293.016ZM50.727 26.5644H34.5652C28.8226 26.5644 26.0373 27.731 26.0373 27.731V0.818604H0.763V83.292H25.8998V50.1127C25.8998 47.2099 28.9946 44.7682 32.674 44.7682H47.3571C51.0365 44.7682 54.1313 47.2099 54.1313 50.1127V83.4005H79.4056V47.454C79.4056 32.3701 66.6137 26.5644 50.727 26.5644Z" fill="#ABADB0"/>
</svg>
