<svg width="323" height="84" viewBox="0 0 323 84" fill="none" xmlns="http://www.w3.org/2000/svg">
<path d="M0.53064 0.187988H322.052V83.3431H0.53064V0.187988Z" fill="#ABADB0"/>
<path d="M272.628 19.562V6.83248H217.508L208.439 49.3524L199.473 6.83248H179.6L181.825 18.1816C179.535 15.272 171.393 6.83248 153.487 6.83248C153.371 6.82422 133.587 6.83248 133.587 6.83248L133.51 68.8103L119.013 6.84075L92.9902 6.82422L78.0043 71.0421L78.0172 6.83248H53.1007L44.1092 42.9049L35.3621 6.84075H10.4457V76.6547H30.0752V43.0041L39.0024 76.6547H49.4347L58.2332 43.0041V76.6547H96.0645L98.3542 65.909H113.584L115.874 76.6547L153.024 76.6712H153.049V76.6547H153.101V53.9895L157.655 53.5597L167.083 76.663H186.301L186.288 76.6464H186.34L173.965 49.5673C180.23 46.5916 187.318 39.02 185.427 31.779V31.7708C185.452 31.8699 197.107 76.6878 197.107 76.6878L219.952 76.6464L235.568 13.3626V76.6464H272.615V64.0988H255.031V48.0877H272.615V35.3334H255.031V19.562H272.628ZM100.67 54.8409L106.059 24.9927L111.655 54.8409H100.67ZM157.719 41.0534C156.214 41.5245 154.632 41.756 153.101 41.756V19.3058C153.127 19.3058 153.152 19.2975 153.191 19.2975C154.722 19.2892 166.183 19.5951 166.183 30.4069C166.196 36.069 162.298 39.6316 157.719 41.0534ZM312.17 64.0822V76.6382H276.024V6.82422H295.486V64.0822H312.17Z" fill="white"/>
</svg>
