<svg width="322" height="37" viewBox="0 0 322 37" fill="none" xmlns="http://www.w3.org/2000/svg">
<path d="M39.6568 36.6096H24.8599V23.0474H15.2744V36.6189H0.0588379V1.60956H15.2311V14.6801H24.8166V1.60956H39.6279L39.6568 36.6096ZM107.593 36.7673C122.765 36.7673 135.151 28.6597 135.151 18.7803C135.151 8.73388 122.779 0.97876 107.593 0.97876C92.2183 0.97876 84.4517 8.14946 82.5751 11.0808C82.5751 6.74871 75.8334 1.56318 68.0091 1.56318H42.7028V36.6096H66.2479C75.8334 36.6096 82.5751 31.3406 82.5751 26.7302C84.6971 29.5873 92.2472 36.7673 107.593 36.7673ZM64.3568 22.5465C66.5511 22.5465 68.2978 23.9102 68.2978 25.4686C68.2978 27.092 66.5366 28.4834 64.3568 28.4834H56.8068V22.5465H64.3568ZM64.3568 9.3925C66.5511 9.3925 68.2978 10.7561 68.2978 12.3146C68.2978 13.873 66.5366 15.2367 64.3568 15.2367H56.8068V9.3925H64.3568ZM74.3321 18.771C76.0933 18.7061 78.9516 17.4074 80.0343 16.6281C79.6301 17.5558 79.6301 20.5335 80.0343 21.4797C78.8217 20.3387 76.0933 18.9936 74.3321 18.771ZM93.763 18.771C93.763 13.8267 99.9993 9.83777 107.694 9.8656C115.417 9.91199 121.552 13.938 121.451 18.9009C121.35 23.7803 115.215 27.7042 107.593 27.7042C99.9416 27.7228 93.763 23.7339 93.763 18.771ZM107.593 25.7933C113.497 25.7933 118.449 22.6764 118.449 18.771C118.449 14.8656 113.497 11.7951 107.593 11.7951C101.515 11.7951 96.6646 14.8749 96.6646 18.771C96.6646 22.6671 101.486 25.7933 107.593 25.7933Z" fill="#ABADB0"/>
<path d="M214.342 13.9841C214.039 5.48687 204.698 0.997069 193.222 0.997069C186.942 0.997069 181.283 2.34215 177.4 4.98594C173.56 2.36071 167.887 0.997069 161.578 0.997069C150.116 0.997069 140.761 5.50542 140.458 14.0027V33.4275C140.458 35.2086 142.725 36.6372 145.453 36.6372H150.174C150.65 36.6372 151.011 36.396 151.011 36.0992V14.049C151.213 9.86536 155.833 7.65756 161.535 7.65756C167.237 7.65756 171.857 9.86536 172.059 14.049V33.409C172.059 35.1901 174.325 36.6186 177.054 36.6186H181.774C182.25 36.6186 182.611 36.3775 182.611 36.0806V14.0305C182.813 9.8468 187.433 7.63901 193.135 7.63901C198.837 7.63901 203.457 9.8468 203.659 14.0305V33.3904C203.659 35.1715 205.926 36.6001 208.654 36.6001H213.375C213.851 36.6001 214.212 36.3589 214.212 36.0621L214.342 13.9841C214.385 14.0305 214.342 14.0027 214.342 13.9841ZM320.937 1.56293H312.911C310.688 1.56293 308.623 2.27722 307.338 3.47388L298.46 11.9247C297.277 13.0286 294.779 13.0286 293.61 11.9247L284.746 3.47388C283.534 2.27722 281.411 1.56293 279.174 1.56293H271.147C270.642 1.56293 270.368 1.90616 270.613 2.19373L286.464 17.3051C287.604 18.3904 287.604 19.819 286.464 20.9043L270.613 36.0157C270.31 36.2754 270.642 36.6465 271.147 36.6465H279.174C281.397 36.6465 283.461 35.9322 284.746 34.7355L293.624 26.2847C294.808 25.1808 297.305 25.1808 298.475 26.2847L307.353 34.7355C308.566 35.9322 310.688 36.6465 312.925 36.6465H320.952C321.457 36.6465 321.731 36.3032 321.486 36.0157L305.621 20.9229C304.48 19.8375 304.48 18.409 305.621 17.3236L321.471 2.21228C321.717 1.93399 321.414 1.56293 320.937 1.56293ZM266.961 1.56293H262.24C259.844 1.56293 257.823 2.64828 257.318 4.0954C253.102 2.01748 247.848 0.978516 242.145 0.978516C228.287 0.978516 217.056 7.17519 217.056 18.8821C217.056 30.589 228.287 36.7856 242.145 36.7856C247.819 36.7856 253.045 35.7467 257.26 33.7337C257.491 35.357 259.627 36.6558 262.255 36.6558H266.975C267.452 36.6558 267.813 36.4146 267.813 36.1177V2.11024C267.784 1.80412 267.437 1.56293 266.961 1.56293ZM242.145 30.1344C233.888 30.1344 227.175 26.2568 227.175 18.9099C227.175 11.5629 233.888 7.68539 242.145 7.68539C250.403 7.68539 257.116 11.5629 257.116 18.9099C257.116 26.2568 250.403 30.1344 242.145 30.1344Z" fill="#ABADB0"/>
</svg>
